# xmcd CD database file
# Copyright (C) 1993-1998 Ti Kan
# 
# Track frame offsets:
#     150
#     12077
#     24402
#     38190
#     46310
#     57577
#     74432
#     83815
#     94370
#     107595
#     120305
#     132995
#     148425
#     160380
# 
# Disc length: 2295 seconds
# 
# Revision: 1
# Processed by: cddbd v1.4b41PL1 Copyright (c) Steve Scherf et al.
# Submitted via: DiscPlay 4.0.4
# 
DISCID=c308f50e
DTITLE=Willy Nelson - Home Is Where You're Happy
DYEAR=1900
DGENRE=
TTITLE0=Is There Something On Your Mind
TTITLE1=I Can't Find The Time
TTITLE2=Home Is Where You're Happy
TTITLE3=Things To Remember
TTITLE4=Sufferin' In Silence
TTITLE5=I Let My Mind Wander
TTITLE6=One Stop Beyond
TTITLE7=I Feel Sorry For Him
TTITLE8=You'll Always Have Someone
TTITLE9=I Just Don't Understand
TTITLE10=Any Ol' Arms Won't Do
TTITLE11=Face Of A Fighter
TTITLE12=I Hope So
TTITLE13=End Of Understanding
EXTD=
EXTT0=
EXTT1=
EXTT2=
EXTT3=
EXTT4=
EXTT5=
EXTT6=
EXTT7=
EXTT8=
EXTT9=
EXTT10=
EXTT11=
EXTT12=
EXTT13=
PLAYORDER=
